<?xml version="1.0" encoding="utf-8"?>
<!-- Generator: Adobe Illustrator 25.4.1, SVG Export Plug-In . SVG Version: 6.00 Build 0)  -->
<svg version="1.1" id="Layer_1" xmlns="http://www.w3.org/2000/svg" xmlns:xlink="http://www.w3.org/1999/xlink" x="0px" y="0px"
	 viewBox="0 0 27.9 125" style="enable-background:new 0 0 27.9 125;" xml:space="preserve">
<style type="text/css">
	.st0{fill:#A63F04;}
</style>
<path class="st0" d="M26.5,25c0-7.7-6.3-16.2-6.3-16.2l-1.9,19.2c0,0-4.4-25-4.4-18.9c0,2-3.7,18.9-3.7,18.9l-2.8-19
	c0,0-6.1,8.4-6.1,16.1c0,8.8,4.1,16.2,9.5,18.2L10,102.2c0,1.8,2.3,3.2,3.9,3.2c1.6,0,3.9-1.4,3.9-3.2l-0.9-59.1
	C22.4,41.1,26.5,33.8,26.5,25z"/>
</svg>
