<?xml version="1.0" encoding="utf-8"?>
<!-- Generator: Adobe Illustrator 25.4.1, SVG Export Plug-In . SVG Version: 6.00 Build 0)  -->
<svg version="1.1" id="Layer_1" xmlns="http://www.w3.org/2000/svg" xmlns:xlink="http://www.w3.org/1999/xlink" x="0px" y="0px"
	 viewBox="0 0 80 125" style="enable-background:new 0 0 80 125;" xml:space="preserve">
<style type="text/css">
	.st0{fill:#EBEFE9;stroke:#616060;stroke-width:9;stroke-miterlimit:10;}
	.st1{fill:#CDD9DB;}
	.st2{fill:#F2CB0C;}
	.st3{fill:#A63F04;}
</style>
<g>
	<circle class="st0" cx="40" cy="50.5" r="36.8"/>
	<circle class="st1" cx="40" cy="50.5" r="18.3"/>
</g>
<path class="st2" d="M37.1,42.9C34.1,35.8,25,30.4,25,30.4l5.8,18.3c0,0-13.9-21.3-11.5-15.6c0.8,1.9,4,18.8,4,18.8l-10-16.4
	c0,0-2.3,10.1,0.7,17.2c3.5,8.1,10.1,13.3,15.9,13l22.3,54.7c0.7,1.6,3.4,2,4.9,1.4c1.5-0.6,3.1-2.9,2.4-4.5l-24-54
	C39.7,59.4,40.6,51,37.1,42.9z"/>
<path class="st3" d="M66.1,52.5c3-7.1,0.5-17.4,0.5-17.4l-9.1,17c0,0,5.6-24.8,3.2-19.1c-0.8,1.9-10.7,16-10.7,16l4.8-18.6
	c0,0-8.8,5.4-11.8,12.5c-3.4,8.1-2.5,16.5,1.8,20.5l-23.6,54.1c-0.7,1.6,0.9,3.8,2.4,4.5c1.5,0.6,4.2,0.2,4.9-1.4l21.9-54.9
	C56.1,65.9,62.7,60.6,66.1,52.5z"/>
</svg>
