<?xml version="1.0" encoding="utf-8"?>
<!-- Generator: Adobe Illustrator 25.4.1, SVG Export Plug-In . SVG Version: 6.00 Build 0)  -->
<svg version="1.1" id="Layer_1" xmlns="http://www.w3.org/2000/svg" xmlns:xlink="http://www.w3.org/1999/xlink" x="0px" y="0px"
	 viewBox="0 0 80 125" style="enable-background:new 0 0 80 125;" xml:space="preserve">
<style type="text/css">
	.st0{fill:#F2CB0C;}
	.st1{fill:#A63F04;}
</style>
<rect class="st0" width="80" height="125.9"/>
<path class="st1" d="M76.2,32.2c3.4-9.5-3.4-23.9-3.4-23.9L61.1,30.7c0,0,3.6-33.5,0.9-26c-0.9,2.5-14.7,21-14.7,21L51,0.6
	c0,0-14.1,6.6-17.5,16.1c-3.9,10.8-0.3,22.4,8.1,28.3L13.7,117c-0.8,2.2,2.5,5.4,5.3,6.4c2.8,1,7.3,0.7,8.1-1.5l24.7-73.2
	C62.1,49.6,72.3,43,76.2,32.2z"/>
<g>
	<path d="M10,36.7l0,5.7c1.2-2.1,2.8-3.7,4.8-4.8c2-1.1,4.2-1.7,6.7-1.7c2.1,0,3.8,0.4,5.1,1.1c1.3,0.7,2.3,1.7,3.1,2.8
		c0.7,1.2,1.2,2.5,1.5,4c0.3,1.5,0.4,3,0.4,4.6v19.9h-8.2V50.5c0-2.5-0.5-4.4-1.4-5.6c-0.9-1.2-2.3-1.8-4-1.8
		c-0.7,0-1.5,0.2-2.3,0.5c-0.8,0.3-1.6,0.8-2.3,1.4c-0.7,0.6-1.4,1.3-2,2.1c-0.6,0.8-1.1,1.7-1.3,2.7v18.7H1.9L1.7,36.9 M1.7,36.9
		l-0.2-29H10L10,36.7"/>
</g>
<g>
	<g>
		<path d="M70.2,109.1l0,5.9 M78.3,107.9V79.3h-8l-0.1,29.9"/>
	</g>
	<g>
		<path d="M78.3,107.9c-0.3,2.6-0.4,3.3-1.3,5.2c-0.9,1.9-2.1,3.5-3.7,4.8c-1.6,1.3-3.4,2.3-5.6,3c-2.2,0.7-4.5,1.1-7.1,1.1
			c-3.5,0-6.4-0.6-8.8-1.8c-2.4-1.2-4.4-2.8-6.1-5l4.5-4.4c1.2,1.5,2.8,2.7,4.6,3.6c1.8,0.9,3.8,1.3,5.9,1.3c1.3,0,2.5-0.2,3.6-0.5
			s2.2-0.9,3.1-1.6c0.9-0.7,1.6-1.7,2.1-2.8c0.5-1.2,0.8-1.3,0.8-2.8 M70.2,95.5v-4.1c-1.1,1.9-2.5,3.3-4.5,4.3
			c-1.9,1-4,1.5-6.2,1.5c-2.2,0-4.1-0.4-5.9-1.3c-1.7-0.9-3.3-2.1-4.5-3.6c-1.3-1.5-2.3-3.3-3-5.2c-0.7-2-1-4.1-1-6.3
			c0-2.4,0.4-4.5,1.1-6.6c0.7-2,1.7-3.8,3-5.3c1.3-1.5,2.9-2.7,4.7-3.6c1.8-0.9,3.8-1.3,6-1.3c2.5,0,4.7,0.6,6.5,1.7
			c1.9,1.1,3.4,2.7,4.6,4.6v-5.7h7.1v30.9 M62.3,90.6c0.9,0,1.7-0.1,2.6-0.4c0.8-0.3,1.6-0.7,2.3-1.2c0.7-0.5,1.3-1.1,1.8-1.7
			c0.5-0.7,0.9-1.4,1.2-2.1v-7.7c-0.7-1.9-1.9-3.4-3.4-4.6c-1.6-1.2-3.2-1.7-4.9-1.7c-1.3,0-2.4,0.3-3.4,0.8c-1,0.6-1.9,1.3-2.6,2.2
			c-0.7,0.9-1.3,2-1.7,3.2c-0.4,1.2-0.6,2.4-0.6,3.7c0,1.3,0.2,2.6,0.7,3.7c0.4,1.2,1.1,2.2,1.9,3c0.8,0.9,1.7,1.5,2.8,2
			C59.9,90.3,61,90.6,62.3,90.6z"/>
	</g>
</g>
</svg>
